PathFileType	4	(X/Y/Z)	Patient4_TMGait_0pt6_01_left_06.trc.trc
DataRate	CameraRate	NumFrames	NumMarkers	Units	OrigDataRate	OrigDataStartFrame	OrigNumFrames
83.333333333333	83.333333333333	5	33	mm	83.333333333333	53	       141
Frame#	Time	Sacral			L.Shoulder			Chest			R.Shoulder			Neck			R.ASIS			L.ASIS			R.Thigh.Superior			R.Thigh.Lateral			R.Thigh.Inferior			R.Patella			L.Thigh.Superior			L.Thigh.Lateral			L.Thigh.Inferior			L.Patella			L.Shank.Superior			L.Shank.Lateral			L.Shank.Inferior			R.Shank.Superior			R.Shank.Lateral			R.Shank.Inferior			R.Heel			R.Midfoot.Superior			R.Midfoot.Lateral			R.Toe			L.Heel			L.Midfoot.Lateral			L.Midfoot.Superior			L.Toe			L.Elbow			L.Wrist			R.Elbow			R.Wrist			
		X1	Y1	Z1	X2	Y2	Z2	X3	Y3	Z3	X4	Y4	Z4	X5	Y5	Z5	X6	Y6	Z6	X7	Y7	Z7	X8	Y8	Z8	X9	Y9	Z9	X10	Y10	Z10	X11	Y11	Z11	X12	Y12	Z12	X13	Y13	Z13	X14	Y14	Z14	X15	Y15	Z15	X16	Y16	Z16	X17	Y17	Z17	X18	Y18	Z18	X19	Y19	Z19	X20	Y20	Z20	X21	Y21	Z21	X22	Y22	Z22	X23	Y23	Z23	X24	Y24	Z24	X25	Y25	Z25	X26	Y26	Z26	X27	Y27	Z27	X28	Y28	Z28	X29	Y29	Z29	X30	Y30	Z30	X31	Y31	Z31	X32	Y32	Z32	X33	Y33	Z33	

53	7.914000000000	620.392697548520	1007.379905228076	442.879233449679	781.040553759553	1434.983741995043	250.116764312909	889.781589785099	1371.235257875630	409.767338631432	809.360202235264	1445.839947084510	584.008283976756	770.244627981729	1498.684755990319	401.381036141106	848.790951032247	947.176161636446	555.099765506586	833.308223893824	967.759282052853	281.090576081565	931.901799912545	774.992449975255	527.187008590125	891.271196861322	654.194810641411	601.306577985518	982.286677020559	615.559851956321	523.321629956741	1001.558143315278	501.820518402867	545.655763023548	877.925838930115	751.502622489992	312.957598319219	783.712611597692	636.960806137632	261.948743514369	865.962615415920	558.522799677049	325.751373950877	863.726982452920	489.819936767731	338.413377194490	838.465180035633	418.873834413670	333.249359510918	749.110429856039	301.384334042329	291.108782633613	804.986292611400	194.626045734045	365.466838076987	925.909344140375	426.423736197522	549.265199925789	803.394103399280	383.781358398067	604.363714956025	792.750971488231	275.801346740518	553.395083444748	594.113967730029	208.222751852274	515.120906198635	763.400341666023	159.265372877704	568.010126621605	651.819325423179	155.191260618309	593.939508622939	829.425813162303	50.270251053026	602.384817056502	679.998632853869	37.777749111886	418.675473770476	751.513163124910	34.890603586388	335.138402323695	835.521633274996	96.156356451493	358.078630462578	962.848957223796	45.102637167891	326.857164740097	803.336951083615	1081.922242827490	129.497597864192	975.143252748435	885.926425658033	149.573833492115	798.654849136983	1092.714704776290	696.911005018818	910.058733038609	857.378506837113	673.876104638071	
54	7.926000000000	619.962682068096	1007.662838592417	441.242991450039	781.507293218185	1435.759456965741	249.418748644055	889.185927942356	1371.815173278822	409.652668452811	807.633592039209	1446.025873582144	583.518259223744	769.831184019074	1499.192684724153	400.805745922534	847.977803975351	948.247959303059	554.515476020279	833.952327390823	968.242763424810	280.197107407477	932.690990921689	777.582206490565	526.887838065045	893.588144155090	656.469768792038	601.306641692037	984.931548372756	618.808043188896	523.291014363075	1006.141124334284	505.962409772899	545.949603996564	875.715081583791	750.804735875254	312.436948214875	780.061934775449	637.109068986845	261.251279532619	861.322115961141	557.837422268949	324.878410457274	858.259806098690	489.214513258866	337.601655186500	832.707109151986	418.586857314021	332.515143075756	742.527441627869	301.537068794516	290.600806881128	798.182946107716	194.577751134284	365.006815021536	932.856929322363	428.815285602440	549.661787218020	811.965301794337	381.823086480336	604.590922244853	805.374117800125	273.385252895963	553.864751076639	609.361512825932	198.173577816630	515.565955546003	780.506716014300	156.014290771536	568.783385452578	669.034244176248	147.559362720177	594.503915259198	850.591548100665	49.754296205567	603.270320730366	672.704153073655	37.864954958455	418.602165622397	744.263906301146	34.888324112666	335.079240017599	828.325453880459	96.155385700737	357.892156245870	955.606918210624	44.997052126296	326.802271139715	806.183007783654	1083.222526709829	128.077933408839	985.178249023024	893.972770437085	148.974797433165	789.276618828449	1093.741232727359	697.272749371524	886.046598612254	850.809249621308	681.817969721554	
55	7.938000000000	619.564799720903	1007.868277428936	439.743908014796	782.048673584626	1436.378750888809	248.804119997263	888.650941911430	1372.283037998236	409.636982885195	805.954846125709	1446.163216941624	583.089122377183	769.474614256093	1499.602954459579	400.267269096174	847.189804594768	949.110764598598	554.017026714602	834.590238202672	968.631149797162	279.420395625102	933.243297782506	779.780105520773	526.664400110192	895.457181691674	658.381009524586	601.335300419906	987.013882993944	621.563551216103	523.264839355527	1010.020203257699	509.803404684517	546.213463267636	873.452464997214	750.065490544981	311.991022458629	776.350430686314	637.243688317305	260.583982401169	856.559112265261	557.148258782128	324.052705652376	852.650843689436	488.621236433827	336.825901483699	826.847155327114	418.299695280044	331.814756068595	735.887727458434	301.671120236136	290.095115968230	791.330728715510	194.526510262221	364.570772313093	939.399539534543	430.891574294881	550.076339495008	820.523084973252	379.202842104688	604.979597393374	818.350527375575	270.415912951168	554.503353134601	625.491623910404	187.054164619350	516.364248790384	798.363087195253	152.213533472157	569.730787575047	687.238728701815	139.148603692023	595.418233514819	872.759654472152	49.075621830691	604.389207566651	665.424703371786	37.938310432655	418.528113260433	737.010896978641	34.879069959720	335.024589149637	821.118111812221	96.160953368586	357.713867282097	948.359024515772	44.925608530836	326.752900110388	808.677540055494	1084.303762464547	126.882237756247	994.673927394670	902.153728890737	148.453208211695	779.628444439252	1095.097864008292	697.908844640215	862.210512258176	846.205884903368	689.454037730447	
56	7.950000000000	619.197426469306	1007.988297862452	438.389067535358	782.658481234383	1436.821895572291	248.278726722526	888.182236205360	1372.617632202503	409.721571741141	804.344414601573	1446.233097705346	582.727694976316	769.178374713016	1499.897061642116	399.777486993273	846.430711168276	949.746875295303	553.595370080568	835.164501612747	968.887720697512	278.773851183939	933.538151387879	781.553678842406	526.485407206622	896.863534704349	659.896637796300	601.381162976828	988.522134221195	623.793770197396	523.223931845706	1013.193496458027	513.304853392445	546.415500678613	871.178938912582	749.275438690865	311.608776194257	772.610979965967	637.356905236551	259.955424458840	851.711771646091	556.449851933569	323.289591016052	846.949244721714	488.038881450679	336.105277314000	820.925318090108	418.004643261332	331.169328038609	729.235905709509	301.781633785487	289.601752420912	784.450600617371	194.463824384626	364.174278476210	945.518153672828	432.656294437061	550.479100779351	829.080289512144	376.018138936741	605.526211537230	831.623061084596	267.044588352603	555.287342291927	642.498342626273	175.150426719540	517.500313131329	816.869100996098	148.092025147412	570.821556644646	706.379122190272	130.235736893174	596.658784944857	895.741355837946	48.464961503894	605.675349741021	658.163888204448	37.996496285511	418.452035046518	729.755888402221	34.863425944053	334.975213601668	813.902147391374	96.171168081043	357.549942662615	941.107671564791	44.884138116555	326.709349511438	810.868318130707	1085.142673128408	125.907888861704	1003.608230015378	910.386464240806	147.997576456944	769.705905045162	1096.776502886771	698.815911937783	838.773955488680	843.418297209623	696.683856710862	
57	7.962000000000	618.864280859803	1008.018443742553	437.180112343808	783.327294885914	1437.078810091761	247.848314335894	887.783151580303	1372.806286152750	409.905802929912	802.820916113155	1446.223532891219	582.439969732294	768.944238703857	1500.061046508701	399.350385607347	845.706564538840	950.152887241959	553.250279949591	835.637579959391	968.988635458149	278.269688499567	933.556693794337	782.882175296033	526.329102935621	897.789064672914	660.996802312490	601.437963041416	989.446128366707	625.479542339617	523.158694614839	1015.667398380362	516.439581165328	546.534823656088	868.929872217070	748.424868089708	311.285323073069	768.871770992718	637.443312880819	259.375894247579	846.813042829142	555.735574240064	322.606508069504	841.199224047603	487.465465814824	335.458245995999	814.975166020362	417.697460179162	330.597561559651	722.607522783894	301.866720919229	289.131264573985	777.560519443576	194.383876230169	363.830285730963	951.196592442781	434.124389006769	550.846204942578	837.644792919605	372.373438572959	606.221279057462	845.130412321727	263.426137789248	556.184707208299	660.362148486526	162.744009987595	518.935593064196	835.924293207473	143.877407441695	572.014169487565	726.391620816982	121.087420363300	598.178554405556	919.353783963000	48.151777916879	607.046514862865	650.921730012267	38.040261370112	418.373396322850	722.499986575564	34.842553352773	334.931690502596	806.679073085265	96.183855049454	357.405430391638	933.854079472192	44.867601142736	326.671601776906	812.804647840962	1085.729354959561	125.152280203805	1011.962483445892	918.586768206577	147.598837403479	759.530553330970	1098.770392360963	699.972137962903	815.917608508319	842.248583317111	703.441236055699	
